<svg xmlns="http://www.w3.org/2000/svg" width="274" height="248" viewBox="0 0 274 248">
  <g id="Layer_2" data-name="Layer 2">
    <g id="Layer_2-2" data-name="Layer 2">
      <g>
        <g>
          <path d="M134.9,142h96.218A21.885,21.885,0,0,1,253,163.885V208.2A24.8,24.8,0,0,1,228.2,233H114a0,0,0,0,1,0,0V162.9A20.9,20.9,0,0,1,134.9,142Z" fill="#4dbfc4"/>
          <path d="M230.627,142h-2.71v59.323A10.925,10.925,0,0,1,216.759,212H153.714v21h73.932c14,0,25.354-10.861,25.354-24.259V163.407C253,151.584,242.983,142,230.627,142Z" fill="#58d1dd"/>
          <ellipse cx="153.714" cy="221" rx="12.541" ry="12" fill="#e09558"/>
        </g>
        <path d="M213.5,73.5V92.7a10.5,10.5,0,1,0,21,0V80.506a7.006,7.006,0,0,0-7.006-7.006Z" fill="#e09558"/>
        <path d="M166,116h34a0,0,0,0,1,0,0v26.2a5.8,5.8,0,0,1-5.8,5.8H171.8a5.8,5.8,0,0,1-5.8-5.8V116A0,0,0,0,1,166,116Z" fill="#e09558"/>
        <path d="M154.5,73.5V92.7a10.5,10.5,0,1,1-21,0V80.506a7.006,7.006,0,0,1,7.006-7.006Z" fill="#e09558"/>
        <path d="M148.5,38.5v64c0,19.882,15.67,36,35,36s35-16.118,35-36v-64Z" fill="#c6814e"/>
        <path d="M183.5,38.5v100c19.33,0,35-16.118,35-36v-64Z" fill="#e09558"/>
        <rect y="233" width="274" height="15" rx="7.5" fill="#f4d8ab"/>
        <g>
          <rect x="5" y="85" width="170" height="116" rx="13.399" fill="#c6c6c6"/>
          <path d="M105.188,156H75.712a8.665,8.665,0,0,0-8.607,7.66L60.13,223.328A8.666,8.666,0,0,0,68.737,233h42.65a8.666,8.666,0,0,0,8.62-9.561l-6.2-59.669A8.665,8.665,0,0,0,105.188,156Z" fill="#9e9e9e"/>
          <rect x="71" y="97" width="38" height="38" rx="19" fill="#9e9e9e"/>
        </g>
        <path d="M189.982,30a8.99,8.99,0,0,0,.612-14.535A9,9,0,0,0,193,9.375C193,4.2,188.523,0,183,0a10.115,10.115,0,0,0-8.766,4.864A10.373,10.373,0,0,0,168,2.813a9.894,9.894,0,0,0-9.691,7.1A10.54,10.54,0,0,0,155,9.375c-5.523,0-10,4.2-10,9.375,0,.016,0,.031,0,.047-6.16.477-11,5.305-11,11.2a10.605,10.605,0,0,0,1.212,4.9A10.985,10.985,0,0,0,126,45.469a10.375,10.375,0,0,0,3.072,7.317A9.285,9.285,0,0,0,124,60.938c0,5.177,4.477,9.375,10,9.375.258,0,.511-.019.764-.037A11.176,11.176,0,0,0,144,75c6.075,0,11-4.617,11-10.312a9.767,9.767,0,0,0-1.556-5.268A9.234,9.234,0,0,0,158,51.563c0-.143-.016-.282-.023-.423a9.772,9.772,0,0,0,6.392-5.7,10.463,10.463,0,0,0,13.719-.392A10.385,10.385,0,0,0,184,46.875c5.523,0,10-4.2,10-9.375A9.173,9.173,0,0,0,189.982,30Z" fill="#6d3400"/>
        <path d="M179.018,30a8.99,8.99,0,0,1-.612-14.535A9,9,0,0,1,176,9.375C176,4.2,180.477,0,186,0a10.115,10.115,0,0,1,8.766,4.864A10.373,10.373,0,0,1,201,2.813a9.894,9.894,0,0,1,9.691,7.1A10.54,10.54,0,0,1,214,9.375c5.523,0,10,4.2,10,9.375,0,.016,0,.031,0,.047,6.16.477,11,5.305,11,11.2a10.605,10.605,0,0,1-1.212,4.9A10.985,10.985,0,0,1,243,45.469a10.375,10.375,0,0,1-3.072,7.317A9.285,9.285,0,0,1,245,60.938c0,5.177-4.477,9.375-10,9.375-.258,0-.511-.019-.764-.037A11.176,11.176,0,0,1,225,75c-6.075,0-11-4.617-11-10.312a9.767,9.767,0,0,1,1.556-5.268A9.234,9.234,0,0,1,211,51.563c0-.143.016-.282.023-.423a9.772,9.772,0,0,1-6.392-5.7,10.466,10.466,0,0,1-13.719-.392A10.385,10.385,0,0,1,185,46.875c-5.523,0-10-4.2-10-9.375A9.173,9.173,0,0,1,179.018,30Z" fill="#592c00"/>
      </g>
    </g>
  </g>
</svg>
