<svg xmlns="http://www.w3.org/2000/svg" width="312.484" height="316" viewBox="0 0 312.484 316">
  <g id="Layer_2" data-name="Layer 2">
    <g id="Layer_4" data-name="Layer 4">
      <g>
        <g>
          <path d="M70.242,106.65a67,67,0,0,0-67,67v97h134v-97A67,67,0,0,0,70.242,106.65Z" fill="#e5d015"/>
          <path d="M122.242,53.65a52,52,0,1,0-64,50.593V115.1a6.628,6.628,0,0,0,2.952,5.515l4.122,2.748a8.881,8.881,0,0,0,9.853,0l4.122-2.748a6.627,6.627,0,0,0,2.951-5.515v-10.86A52.009,52.009,0,0,0,122.242,53.65Z" fill="#6d3d18"/>
          <path d="M50.242,20.65s-7.553,27.545-32,30c1.447-31.455,21-47,44.915-50.5,34.085-2.5,58.085,26.5,58.085,43.5C95.3,49.383,69.112,29.9,50.242,20.65Z" fill="#281200"/>
        </g>
        <g>
          <path d="M242.242,106.65a67,67,0,0,0-67,67v97h134v-97A67,67,0,0,0,242.242,106.65Z" fill="#13949e"/>
          <path d="M294.242,53.65a52,52,0,1,0-64,50.593V115.1a6.628,6.628,0,0,0,2.952,5.515l4.122,2.748a8.881,8.881,0,0,0,9.853,0l4.122-2.748a6.627,6.627,0,0,0,2.951-5.515v-10.86A52.009,52.009,0,0,0,294.242,53.65Z" fill="#e0a361"/>
          <path d="M222.242,20.65s-7.553,27.545-32,30c1.447-31.455,21-47,44.915-50.5,34.085-2.5,58.085,26.5,58.085,43.5C267.3,49.383,241.112,29.9,222.242,20.65Z" fill="#4c2200"/>
        </g>
        <g>
          <path d="M156.242,151.65a67,67,0,0,0-67,67v97h134v-97A67,67,0,0,0,156.242,151.65Z" fill="#1153a3"/>
          <path d="M208.242,98.65a52,52,0,1,0-64,50.593V160.1a6.628,6.628,0,0,0,2.952,5.515l4.122,2.748a8.881,8.881,0,0,0,9.853,0l4.122-2.748a6.627,6.627,0,0,0,2.951-5.515v-10.86A52.009,52.009,0,0,0,208.242,98.65Z" fill="#ffbf8a"/>
          <path d="M136.242,65.65s-7.553,27.545-32,30c1.447-31.455,21-47,44.915-50.5,34.085-2.5,58.085,26.5,58.085,43.5C181.3,94.383,155.112,74.9,136.242,65.65Z" fill="#6d3400"/>
        </g>
        <g>
          <path d="M256.2,213.238a56.281,56.281,0,0,0-56.281,56.281V316H312.484V269.519A56.28,56.28,0,0,0,256.2,213.238Z" fill="#a01f12"/>
          <path d="M299.884,168.717a43.681,43.681,0,1,0-53.761,42.5v9.122a5.569,5.569,0,0,0,2.48,4.633l3.462,2.308a7.46,7.46,0,0,0,8.277,0l3.462-2.308a5.569,5.569,0,0,0,2.48-4.633v-9.122A43.687,43.687,0,0,0,299.884,168.717Z" fill="#aa7146"/>
          <path d="M239.4,141s-6.344,23.137-26.88,25.2c1.215-26.423,17.64-39.48,37.729-42.419,28.632-2.1,48.792,22.259,48.792,36.539C277.254,165.133,255.254,148.767,239.4,141Z" fill="#421e00"/>
        </g>
        <g>
          <path d="M56.281,213.238A56.281,56.281,0,0,0,0,269.519V316H112.562V269.519A56.281,56.281,0,0,0,56.281,213.238Z" fill="#34383d"/>
          <path d="M99.961,168.717a43.681,43.681,0,1,0-53.76,42.5v9.122a5.568,5.568,0,0,0,2.479,4.633l3.462,2.308a7.46,7.46,0,0,0,8.277,0l3.462-2.308a5.566,5.566,0,0,0,2.48-4.633v-9.122A43.687,43.687,0,0,0,99.961,168.717Z" fill="#ffdbc0"/>
          <path d="M39.481,141S33.136,164.134,12.6,166.2c1.216-26.423,17.64-39.48,37.729-42.419,28.632-2.1,48.792,22.259,48.792,36.539C77.332,165.133,55.331,148.767,39.481,141Z" fill="#6d3400"/>
        </g>
      </g>
    </g>
  </g>
</svg>
